<?xml version="1.0" standalone="no"?>
<!DOCTYPE svg PUBLIC "-//W3C//DTD SVG 20010904//EN"
 "http://www.w3.org/TR/2001/REC-SVG-20010904/DTD/svg10.dtd">
<svg version="1.0" xmlns="http://www.w3.org/2000/svg"
 width="960.000000pt" height="960.000000pt" viewBox="0 0 960.000000 960.000000"
 preserveAspectRatio="xMidYMid meet">
<metadata>
Created by potrace 1.11, written by Peter Selinger 2001-2013
</metadata>
<g transform="translate(0.000000,960.000000) scale(0.100000,-0.100000)"
fill="#000000" stroke="none">
<path d="M2339 8576 c-2 -2 -35 -6 -74 -10 -91 -7 -207 -22 -270 -35 -27 -6
-61 -13 -75 -15 -14 -3 -36 -8 -50 -11 -14 -3 -35 -8 -47 -11 -12 -2 -33 -8
-45 -13 -13 -5 -26 -9 -31 -9 -4 0 -33 -8 -65 -18 -31 -10 -61 -18 -67 -20
-35 -8 -230 -93 -303 -131 -141 -75 -300 -183 -406 -277 -16 -14 -33 -26 -38
-26 -4 0 -8 -4 -8 -8 0 -5 -37 -46 -83 -93 -69 -70 -110 -117 -185 -214 -24
-31 -104 -159 -115 -183 -6 -15 -14 -29 -18 -32 -10 -8 -99 -201 -99 -214 0
-7 -4 -16 -9 -21 -8 -9 -66 -177 -76 -220 -2 -11 -9 -40 -16 -65 -16 -65 -19
-82 -25 -110 -2 -14 -6 -34 -9 -46 -2 -11 -7 -45 -11 -75 -3 -30 -8 -57 -10
-60 -17 -30 -25 -525 -10 -649 4 -36 9 -81 11 -100 2 -19 5 -37 6 -40 1 -3 3
-9 4 -15 9 -62 64 -273 82 -315 3 -8 7 -17 7 -20 7 -33 135 -305 158 -335 4
-5 30 -44 57 -85 27 -41 58 -84 69 -95 10 -12 21 -26 23 -32 4 -11 116 -139
160 -182 90 -89 149 -141 158 -141 6 0 11 -4 11 -8 0 -14 198 -157 305 -219
48 -29 265 -132 320 -152 33 -13 69 -26 80 -31 40 -15 140 -44 148 -42 4 1 16
-2 26 -7 10 -6 33 -13 52 -16 49 -8 73 -23 93 -57 29 -48 22 -119 -16 -160 -7
-7 -31 -40 -53 -73 -22 -33 -43 -61 -47 -63 -5 -2 -8 -10 -8 -18 0 -8 -3 -14
-8 -14 -4 0 -12 -9 -17 -19 -6 -11 -31 -49 -57 -86 -27 -36 -48 -68 -48 -71 0
-3 -6 -11 -12 -19 -7 -7 -38 -50 -68 -95 -30 -44 -76 -111 -102 -148 -26 -37
-57 -82 -70 -100 -13 -19 -38 -53 -55 -78 -18 -24 -30 -44 -25 -44 4 0 -1 -5
-10 -11 -10 -5 -18 -16 -18 -24 0 -7 -3 -15 -7 -17 -5 -1 -26 -30 -48 -63 -22
-33 -43 -61 -47 -63 -5 -2 -8 -8 -8 -13 0 -6 -5 -15 -11 -22 -23 -26 -129
-181 -129 -188 0 -4 -6 -14 -13 -21 -23 -22 -87 -117 -87 -128 0 -5 -4 -10 -8
-10 -5 0 -15 -12 -23 -27 -8 -16 -19 -32 -25 -38 -6 -5 -55 -75 -109 -155 -54
-80 -101 -147 -105 -150 -3 -3 -17 -23 -30 -45 -13 -22 -27 -42 -30 -45 -3 -3
-32 -43 -63 -90 -142 -211 -209 -307 -227 -326 -11 -12 -20 -26 -20 -31 0 -5
-13 -24 -30 -43 -16 -19 -30 -39 -30 -45 0 -5 -14 -26 -30 -45 -17 -19 -30
-40 -30 -46 0 -7 -4 -14 -8 -16 -10 -4 -210 -293 -224 -324 -8 -18 -8 -34 1
-64 22 -75 -77 -70 1323 -70 1159 1 1256 2 1287 18 19 9 42 28 52 42 15 20 99
242 113 300 2 8 13 39 25 67 11 29 18 53 15 53 -4 0 -1 6 5 13 6 8 12 22 14
33 2 10 10 33 16 49 7 17 14 38 16 47 2 9 8 25 13 35 18 33 7 95 -21 119 l-26
22 -88 -23 c-48 -13 -113 -31 -143 -40 -30 -9 -66 -18 -79 -21 -13 -3 -39 -11
-57 -19 -19 -8 -34 -12 -34 -10 0 3 -12 0 -27 -6 -57 -23 -103 -23 -125 1 -33
36 -32 87 5 145 17 27 34 52 37 55 3 3 10 12 15 21 21 33 90 134 96 139 3 3
43 61 90 130 46 69 87 127 90 130 3 3 33 46 67 96 33 50 68 98 76 107 9 9 16
18 16 21 0 8 64 101 73 104 4 2 7 10 7 17 0 7 3 15 8 17 7 3 35 41 123 173 30
44 57 82 60 85 3 3 41 57 84 120 44 63 98 141 120 173 22 33 45 66 50 75 6 10
13 19 16 22 3 3 17 21 30 42 43 66 152 223 158 228 3 3 33 45 66 95 33 49 68
99 78 109 9 11 17 23 17 27 0 4 6 14 13 21 6 7 43 59 81 116 38 56 78 110 88
119 29 26 96 22 120 -7 19 -23 19 -54 16 -1330 -4 -1279 -4 -1306 -23 -1332
-49 -66 -104 -68 -171 -7 -26 24 -60 55 -75 69 -237 219 -246 224 -303 179
-36 -28 -39 -35 -111 -242 -34 -100 -73 -210 -85 -245 -14 -41 -19 -72 -15
-92 14 -65 -160 -61 2171 -57 1166 2 2142 7 2169 10 123 16 185 25 250 37 125
24 180 36 280 65 50 14 95 27 100 28 6 2 20 9 33 15 12 7 22 10 22 7 0 -3 17
3 38 14 20 10 42 20 47 21 29 7 187 79 195 89 3 3 25 16 50 29 55 28 80 43 98
60 7 6 17 12 22 12 9 0 182 130 220 166 93 87 153 148 205 209 33 39 63 71 67
73 5 2 8 8 8 14 0 6 11 24 25 42 14 17 29 36 33 41 4 6 25 39 46 75 21 36 46
76 55 90 8 14 16 27 17 30 0 3 10 25 22 50 11 25 21 49 21 54 -1 5 3 12 8 15
15 10 103 254 117 325 3 11 13 64 24 116 39 185 47 291 46 600 0 262 -5 353
-24 440 -6 25 -13 56 -16 70 -9 43 -46 153 -67 200 -42 96 -71 156 -94 193
-13 20 -21 37 -18 37 3 0 1 6 -5 13 -15 18 -60 87 -60 93 0 2 -18 28 -40 57
-22 29 -51 65 -63 82 -37 49 -214 222 -272 265 -29 22 -56 48 -60 59 -10 34
21 77 110 151 120 100 232 215 287 293 12 18 25 34 29 37 13 11 128 209 163
282 37 80 79 199 97 278 33 144 38 208 34 515 -2 171 -6 324 -9 340 -3 17 -8
50 -11 75 -8 73 -35 212 -59 303 -36 137 -130 377 -168 426 -10 13 -18 28 -18
34 0 13 -124 200 -144 216 -9 7 -16 17 -16 22 0 16 -137 159 -231 242 -30 26
-61 53 -69 61 -8 7 -40 31 -70 52 -30 21 -56 42 -58 46 -2 5 -8 8 -12 8 -5 0
-39 18 -77 41 -37 22 -75 45 -83 50 -18 10 -103 52 -110 53 -3 1 -30 13 -61
28 -107 49 -268 101 -439 139 -47 11 -94 22 -104 24 -11 3 -42 7 -70 11 -28 3
-62 8 -76 10 -14 2 -50 6 -80 10 -30 3 -68 9 -85 12 -33 6 -5199 14 -5206 8z
m1645 -1516 c14 -14 29 -43 33 -65 5 -22 8 -326 8 -675 -1 -607 -2 -636 -20
-668 -20 -34 -32 -40 -86 -47 -29 -4 -62 -5 -204 -4 -127 0 -182 0 -195 0 -8
0 -37 0 -65 0 -27 0 -57 0 -65 0 -8 0 -51 0 -95 0 -44 0 -87 0 -95 0 -8 0 -37
0 -65 0 -27 0 -57 0 -65 0 -8 0 -51 0 -95 0 -44 0 -87 0 -95 0 -8 0 -37 0 -65
0 -27 0 -57 0 -65 0 -309 -2 -398 13 -537 90 -67 37 -80 48 -163 129 -160 157
-214 293 -213 530 2 230 60 370 220 528 51 50 100 92 107 92 8 0 16 4 18 9 9
26 208 98 281 103 21 1 40 5 42 8 2 3 330 3 729 0 l726 -5 24 -25z m3432 3
c82 -27 169 -69 224 -107 44 -29 135 -117 175 -166 24 -31 79 -137 87 -168 9
-32 10 -35 18 -57 29 -75 31 -391 4 -507 -1 -5 -3 -10 -4 -13 -1 -3 -3 -8 -5
-12 -1 -5 -5 -21 -10 -38 -33 -119 -168 -276 -305 -357 -46 -27 -170 -80 -170
-73 0 3 -12 0 -26 -5 -14 -6 -47 -13 -72 -16 -68 -10 -1429 -11 -1481 -2 -49
9 -76 34 -87 81 -11 50 -11 1358 0 1387 14 36 45 68 70 73 11 3 359 4 771 3
731 -2 752 -2 811 -23z m-39 -2921 c12 -6 33 -12 47 -12 14 0 28 -4 31 -10 3
-5 12 -10 19 -10 44 0 179 -83 273 -168 78 -71 149 -196 179 -317 21 -84 24
-483 4 -555 -7 -25 -14 -54 -16 -65 -4 -21 -45 -116 -54 -125 -3 -3 -12 -18
-20 -34 -13 -26 -135 -154 -172 -181 -86 -62 -229 -125 -326 -143 -15 -3 -355
-6 -757 -8 -716 -3 -731 -2 -772 17 -24 12 -43 24 -44 27 0 4 -3 16 -5 27 -10
38 -9 1450 0 1485 12 45 24 60 60 75 42 18 1521 15 1553 -3z"/>
</g>
</svg>
